<svg xmlns="http://www.w3.org/2000/svg" xmlns:xlink="http://www.w3.org/1999/xlink" width="1920" zoomAndPan="magnify" viewBox="0 0 1440 809.999993" height="1080" preserveAspectRatio="xMidYMid meet" version="1.0"><defs><g/><clipPath id="9e266226f3"><path d="M 653.390625 257.773438 L 767.390625 257.773438 L 767.390625 371.773438 L 653.390625 371.773438 Z M 653.390625 257.773438 " clip-rule="nonzero"/></clipPath></defs><rect x="-144" width="1728" fill="#ffffff" y="-80.999999" height="971.999992" fill-opacity="1"/><rect x="-144" width="1728" fill="#ffffff" y="-80.999999" height="971.999992" fill-opacity="1"/><path fill="#fe5933" d="M 1339.226562 486.601562 C 1335.335938 474.925781 1326.515625 469.734375 1315.355469 467.140625 C 1314.058594 457.539062 1321.84375 453.648438 1325.476562 445.34375 C 1328.847656 437.820312 1331.183594 430.554688 1335.855469 422.773438 C 1346.234375 405.386719 1342.339844 396.308594 1342.082031 376.585938 C 1342.082031 359.203125 1358.167969 335.074219 1330.925781 325.992188 C 1313.28125 320.285156 1306.015625 343.375 1310.167969 357.386719 C 1294.339844 361.019531 1280.070312 323.136719 1276.175781 351.160156 C 1275.917969 353.496094 1283.183594 355.832031 1281.886719 360.761719 C 1280.589844 365.691406 1274.621094 364.652344 1272.027344 366.988281 C 1270.210938 368.804688 1267.097656 369.324219 1265.019531 371.398438 C 1262.683594 373.472656 1261.90625 381 1261.128906 381.515625 C 1238.296875 398.121094 1194.964844 361.539062 1176.800781 352.457031 C 1175.765625 335.59375 1179.917969 319.246094 1160.457031 325.472656 C 1146.1875 330.144531 1153.191406 335.332031 1138.140625 325.472656 C 1127.761719 318.726562 1111.9375 312.757812 1103.894531 305.753906 C 1102.855469 304.976562 1102.078125 304.195312 1101.558594 303.160156 C 1083.914062 281.363281 1109.082031 242.703125 1076.390625 226.355469 C 1075.09375 214.941406 1091.699219 200.152344 1097.925781 191.328125 C 1107.265625 178.097656 1110.121094 167.457031 1109.601562 152.148438 C 1108.304688 124.128906 1071.199219 113.488281 1051.738281 96.363281 C 1050.703125 95.328125 1049.664062 94.546875 1048.886719 93.511719 L 1049.144531 93.511719 C 1049.144531 93.511719 1048.886719 93.511719 1048.886719 93.511719 C 1040.84375 83.910156 1041.621094 71.976562 1029.425781 67.046875 C 1016.453125 61.855469 1000.625 63.933594 987.132812 59 C 980.128906 56.40625 974.417969 56.40625 967.414062 54.589844 C 961.1875 53.035156 954.699219 46.808594 948.730469 46.546875 C 934.203125 45.769531 930.050781 64.96875 916.816406 64.191406 C 917.597656 64.191406 915.78125 63.414062 912.40625 62.117188 C 905.402344 59.261719 892.949219 54.851562 893.984375 55.886719 C 884.902344 46.808594 896.0625 47.84375 894.503906 40.320312 C 891.132812 22.417969 869.59375 24.234375 873.488281 43.175781 C 869.855469 43.433594 856.621094 45.25 854.285156 42.394531 C 849.355469 35.648438 858.957031 34.351562 859.476562 29.164062 C 860.515625 12.039062 852.730469 16.710938 840.277344 11.519531 C 829.636719 7.109375 823.929688 -12.609375 809.917969 -7.679688 C 804.988281 -6.125 796.6875 10.480469 790.976562 15.152344 C 777.484375 25.789062 744.273438 33.832031 774.371094 51.738281 C 787.605469 59.78125 792.015625 49.921875 801.875 49.660156 C 813.550781 49.402344 815.367188 58.222656 821.335938 68.601562 C 810.957031 78.203125 795.386719 68.601562 781.894531 69.121094 C 782.675781 76.644531 779.820312 82.613281 774.890625 87.023438 C 765.550781 95.328125 749.203125 97.921875 737.269531 94.289062 C 726.371094 91.175781 720.921875 77.164062 710.542969 75.089844 C 691.863281 71.457031 698.089844 88.0625 689.527344 94.546875 C 680.964844 101.292969 651.386719 104.925781 636.078125 102.074219 C 632.703125 101.554688 630.109375 100.515625 628.292969 99.476562 C 620.25 93.25 621.289062 81.835938 606.496094 86.246094 C 597.417969 88.839844 596.898438 103.109375 584.441406 100.515625 C 582.886719 88.0625 574.84375 96.882812 568.355469 92.472656 C 560.832031 87.542969 564.203125 81.835938 555.640625 81.054688 C 550.972656 80.796875 529.175781 91.433594 526.582031 95.847656 C 523.210938 101.554688 529.957031 109.078125 527.101562 113.488281 C 522.949219 119.714844 516.203125 114.269531 509.976562 116.085938 C 509.457031 116.34375 508.679688 116.601562 508.160156 116.863281 C 495.707031 124.128906 506.34375 127.761719 504.789062 132.429688 C 501.15625 142.550781 490.515625 149.554688 478.839844 152.410156 C 477.804688 152.667969 477.023438 152.929688 475.988281 152.929688 C 466.90625 154.484375 450.300781 150.59375 442.515625 146.960938 C 427.984375 140.214844 435.769531 131.132812 420.203125 127.761719 C 415.273438 126.722656 407.746094 129.578125 403.855469 129.058594 C 391.917969 126.980469 398.148438 126.980469 391.402344 120.234375 C 388.289062 117.121094 389.585938 107.523438 380.242188 110.117188 C 374.277344 111.933594 372.71875 119.199219 373.496094 124.386719 C 363.636719 130.875 363.121094 138.917969 355.855469 146.960938 C 350.925781 152.410156 337.949219 153.707031 338.46875 164.605469 C 339.765625 187.695312 374.277344 166.160156 384.65625 177.578125 C 388.546875 192.109375 379.984375 190.550781 372.199219 194.960938 C 360.523438 201.449219 362.339844 197.816406 356.375 210.789062 C 354.816406 214.164062 357.929688 218.574219 355.335938 221.945312 C 353.257812 224.539062 347.292969 223.761719 344.957031 226.617188 C 340.285156 232.066406 337.949219 232.585938 338.730469 243.742188 C 338.46875 243.742188 338.46875 244 338.210938 244 C 322.644531 250.488281 316.675781 266.574219 302.664062 274.878906 C 292.285156 281.105469 291.765625 276.953125 287.875 288.886719 C 285.796875 295.117188 289.691406 302.378906 284.761719 309.644531 C 279.050781 318.207031 259.332031 330.660156 249.734375 330.402344 C 239.09375 329.882812 238.835938 320.800781 226.898438 323.65625 C 218.078125 325.730469 217.300781 334.292969 206.921875 333.777344 C 206.660156 341.039062 205.363281 350.121094 206.921875 357.128906 C 208.21875 362.058594 215.742188 370.101562 215.742188 375.03125 C 215.742188 384.628906 191.613281 399.9375 215.742188 402.273438 C 220.671875 426.921875 173.710938 441.195312 156.84375 449.757812 C 152.175781 452.089844 141.277344 458.578125 138.164062 462.988281 C 133.75 469.476562 137.382812 474.144531 134.53125 481.671875 C 129.601562 494.382812 112.734375 495.421875 121.558594 511.769531 C 104.953125 514.621094 111.4375 530.96875 112.214844 542.386719 C 112.734375 553.023438 114.8125 548.871094 110.660156 558.214844 C 107.546875 564.960938 100.019531 564.960938 101.320312 574.039062 C 116.886719 572.484375 121.816406 588.828125 120.777344 598.691406 C 120.777344 598.171875 115.847656 615.554688 115.328125 616.074219 C 109.363281 624.117188 102.617188 619.445312 96.648438 626.453125 C 97.945312 629.046875 96.90625 631.640625 97.945312 634.238281 C 86.011719 635.273438 87.046875 635.792969 80.5625 641.242188 C 79.265625 642.28125 81.339844 647.730469 79.523438 649.804688 C 77.449219 652.140625 73.035156 649.285156 70.960938 652.140625 C 62.398438 663.816406 67.328125 669.78125 82.378906 676.269531 C 90.679688 679.644531 111.179688 681.71875 120.519531 676.53125 C 128.304688 672.117188 125.191406 665.371094 129.859375 660.441406 C 135.828125 654.476562 140.496094 657.070312 147.503906 654.214844 C 159.699219 649.285156 163.332031 636.3125 160.734375 622.042969 C 159.957031 617.113281 152.433594 614.515625 152.175781 606.214844 C 152.175781 604.398438 156.324219 588.570312 157.105469 587.53125 C 170.597656 570.667969 208.738281 564.699219 227.417969 557.175781 C 237.277344 553.285156 250.25 546.796875 258.8125 544.203125 C 269.710938 540.828125 286.316406 545.238281 295.398438 540.570312 C 294.878906 545.238281 299.808594 542.644531 302.144531 543.164062 C 312.265625 545.238281 322.902344 547.835938 319.269531 569.371094 C 297.734375 567.035156 314.859375 588.570312 317.972656 595.578125 C 323.421875 608.289062 318.75 621.261719 316.414062 636.570312 C 314.082031 653.4375 300.589844 660.183594 311.226562 673.414062 C 315.636719 678.863281 321.863281 680.160156 324.457031 687.425781 C 326.535156 693.652344 316.933594 701.957031 327.574219 706.367188 C 339.507812 711.296875 353.519531 685.609375 361.042969 711.296875 C 365.972656 727.902344 356.632812 731.535156 372.460938 746.066406 C 383.875 756.183594 379.464844 755.667969 384.65625 766.042969 C 388.289062 773.050781 388.804688 777.980469 396.332031 782.910156 C 409.5625 791.214844 418.386719 782.390625 432.136719 779.796875 C 444.851562 777.203125 457.824219 782.910156 470.796875 776.941406 C 483.769531 771.234375 491.554688 762.671875 501.15625 753.332031 C 505.046875 749.4375 511.535156 743.210938 516.980469 743.472656 C 525.027344 743.730469 524.246094 751.773438 529.695312 752.8125 C 538.519531 754.628906 542.148438 749.4375 550.453125 752.8125 C 556.679688 755.148438 557.71875 758.261719 561.609375 762.671875 C 568.355469 770.195312 560.3125 770.457031 572.765625 773.828125 C 577.4375 775.125 587.039062 774.605469 591.707031 773.828125 C 606.757812 771.492188 605.71875 764.226562 618.433594 757.484375 C 644.898438 743.988281 651.386719 730.5 660.464844 702.214844 C 670.84375 700.917969 678.628906 700.398438 682.519531 690.800781 C 684.597656 685.871094 681.484375 678.34375 682.519531 673.15625 C 683.300781 669.003906 689.265625 662.519531 689.007812 658.886719 C 688.230469 649.285156 669.546875 645.914062 669.546875 638.128906 C 669.546875 635.535156 690.824219 621.261719 695.234375 618.929688 C 702.5 615.035156 714.695312 616.59375 720.921875 611.144531 C 729.226562 603.621094 726.890625 588.3125 733.636719 580.785156 C 734.933594 579.230469 737.007812 577.152344 739.601562 575.078125 L 753.355469 564.960938 C 763.734375 558.730469 774.890625 555.359375 780.078125 563.402344 C 768.402344 579.75 791.753906 582.085938 789.421875 595.316406 C 788.125 602.324219 775.667969 606.472656 772.035156 614.515625 C 758.804688 642.800781 795.648438 647.730469 808.878906 664.074219 C 790.199219 687.425781 828.082031 679.644531 837.164062 683.535156 C 850.65625 689.242188 851.691406 702.476562 869.335938 702.214844 C 876.339844 702.214844 896.578125 692.355469 899.691406 705.328125 C 902.546875 716.488281 878.15625 726.605469 874.265625 735.429688 C 883.085938 742.691406 883.867188 750.996094 890.09375 758.261719 C 896.0625 765.007812 904.105469 764.488281 910.851562 769.675781 C 936.019531 789.136719 884.125 801.332031 915.78125 814.046875 C 937.316406 822.609375 955.738281 805.484375 957.292969 785.246094 C 958.332031 772.273438 957.292969 767.34375 947.695312 759.558594 C 940.949219 754.109375 928.753906 755.667969 931.867188 742.433594 C 950.808594 734.648438 950.546875 713.375 955.476562 697.546875 C 958.332031 688.722656 960.925781 683.792969 967.414062 678.605469 C 968.710938 677.566406 970.007812 676.53125 971.566406 675.492188 C 982.460938 668.484375 984.796875 666.410156 991.804688 657.589844 C 1004.777344 641.5 1024.753906 624.894531 1013.859375 602.0625 C 1008.410156 590.386719 1003.21875 593.242188 1006.59375 576.636719 C 1007.890625 570.925781 1009.1875 550.6875 1012.5625 546.019531 C 1020.34375 534.34375 1018.789062 545.238281 1028.648438 544.460938 C 1040.0625 543.683594 1035.394531 539.53125 1045.773438 534.601562 C 1049.144531 533.046875 1061.601562 530.449219 1063.675781 536.160156 C 1066.269531 543.164062 1055.113281 544.980469 1054.074219 550.167969 C 1051.222656 562.363281 1063.933594 576.117188 1073.277344 584.160156 C 1082.617188 592.460938 1090.660156 602.324219 1100.777344 609.585938 C 1114.789062 619.964844 1124.910156 622.820312 1135.546875 609.585938 C 1140.738281 603.101562 1137.105469 598.429688 1146.703125 595.316406 C 1151.894531 593.5 1160.195312 597.652344 1166.164062 595.835938 C 1178.359375 591.945312 1179.914062 582.863281 1195.742188 583.121094 C 1212.347656 583.382812 1219.875 589.867188 1221.949219 606.472656 C 1241.667969 604.65625 1228.4375 617.628906 1226.359375 623.859375 C 1223.765625 632.421875 1218.835938 633.199219 1229.472656 641.5 C 1235.699219 646.171875 1251.269531 648.246094 1258.535156 646.691406 C 1287.851562 640.984375 1267.355469 626.453125 1261.648438 614.257812 C 1259.054688 609.070312 1259.054688 601.804688 1256.71875 596.875 C 1250.75 584.417969 1246.597656 596.355469 1252.046875 581.304688 C 1254.902344 573.003906 1275.917969 557.175781 1256.71875 552.503906 C 1242.964844 549.132812 1229.992188 571.707031 1226.621094 547.835938 C 1225.0625 537.457031 1226.359375 516.699219 1232.585938 509.433594 C 1236.738281 504.761719 1243.746094 501.910156 1247.636719 498.535156 C 1251.527344 495.164062 1253.34375 489.714844 1257.238281 487.378906 C 1274.878906 476.480469 1282.921875 487.121094 1285.519531 502.945312 C 1281.105469 519.292969 1294.082031 508.65625 1307.832031 516.179688 C 1316.914062 521.109375 1337.152344 535.378906 1344.417969 520.332031 C 1347.53125 513.324219 1341.042969 508.914062 1340.007812 503.207031 C 1338.191406 498.535156 1340.007812 489.195312 1339.226562 486.601562 Z M 1339.226562 486.601562 " fill-opacity="1" fill-rule="nonzero"/><g clip-path="url(#9e266226f3)"><path fill="#ffffff" d="M 767.167969 295.703125 L 767.167969 333.625 L 729.242188 333.625 L 729.242188 371.550781 L 691.316406 371.550781 L 691.316406 333.625 L 653.390625 333.625 L 653.390625 295.703125 L 691.316406 295.703125 L 691.316406 257.773438 L 729.242188 257.773438 L 729.242188 295.703125 Z M 767.167969 295.703125 " fill-opacity="1" fill-rule="nonzero"/></g><g fill="#ffffff" fill-opacity="1"><g transform="translate(507.356675, 519.831618)"><g><path d="M 40.453125 0.90625 C 34.097656 0.90625 28.375 -0.175781 23.28125 -2.34375 C 18.195312 -4.519531 14.175781 -7.648438 11.21875 -11.734375 C 8.257812 -15.828125 6.738281 -20.660156 6.65625 -26.234375 L 26.234375 -26.234375 C 26.492188 -22.492188 27.816406 -19.535156 30.203125 -17.359375 C 32.597656 -15.179688 35.882812 -14.09375 40.0625 -14.09375 C 44.320312 -14.09375 47.671875 -15.113281 50.109375 -17.15625 C 52.546875 -19.207031 53.765625 -21.882812 53.765625 -25.1875 C 53.765625 -27.882812 52.9375 -30.101562 51.28125 -31.84375 C 49.632812 -33.582031 47.570312 -34.953125 45.09375 -35.953125 C 42.613281 -36.953125 39.195312 -38.0625 34.84375 -39.28125 C 28.925781 -41.019531 24.117188 -42.738281 20.421875 -44.4375 C 16.722656 -46.132812 13.546875 -48.703125 10.890625 -52.140625 C 8.242188 -55.578125 6.921875 -60.164062 6.921875 -65.90625 C 6.921875 -71.300781 8.265625 -76 10.953125 -80 C 13.648438 -84 17.4375 -87.0625 22.3125 -89.1875 C 27.1875 -91.320312 32.753906 -92.390625 39.015625 -92.390625 C 48.410156 -92.390625 56.046875 -90.101562 61.921875 -85.53125 C 67.796875 -80.96875 71.035156 -74.597656 71.640625 -66.421875 L 51.546875 -66.421875 C 51.367188 -69.554688 50.039062 -72.144531 47.5625 -74.1875 C 45.082031 -76.226562 41.800781 -77.25 37.71875 -77.25 C 34.144531 -77.25 31.289062 -76.335938 29.15625 -74.515625 C 27.03125 -72.691406 25.96875 -70.039062 25.96875 -66.5625 C 25.96875 -64.125 26.769531 -62.097656 28.375 -60.484375 C 29.988281 -58.878906 31.988281 -57.578125 34.375 -56.578125 C 36.769531 -55.578125 40.144531 -54.421875 44.5 -53.109375 C 50.414062 -51.367188 55.242188 -49.628906 58.984375 -47.890625 C 62.722656 -46.148438 65.941406 -43.539062 68.640625 -40.0625 C 71.335938 -36.582031 72.6875 -32.015625 72.6875 -26.359375 C 72.6875 -21.484375 71.425781 -16.957031 68.90625 -12.78125 C 66.382812 -8.613281 62.6875 -5.289062 57.8125 -2.8125 C 52.9375 -0.332031 47.148438 0.90625 40.453125 0.90625 Z M 40.453125 0.90625 "/></g></g></g><g fill="#ffffff" fill-opacity="1"><g transform="translate(583.046601, 519.831618)"><g><path d="M 77.25 -72.296875 L 77.25 0 L 58.859375 0 L 58.859375 -9.140625 C 56.503906 -6.003906 53.4375 -3.546875 49.65625 -1.765625 C 45.875 0.015625 41.765625 0.90625 37.328125 0.90625 C 31.671875 0.90625 26.664062 -0.285156 22.3125 -2.671875 C 17.96875 -5.066406 14.554688 -8.59375 12.078125 -13.25 C 9.597656 -17.90625 8.359375 -23.453125 8.359375 -29.890625 L 8.359375 -72.296875 L 26.625 -72.296875 L 26.625 -32.5 C 26.625 -26.75 28.054688 -22.328125 30.921875 -19.234375 C 33.796875 -16.148438 37.710938 -14.609375 42.671875 -14.609375 C 47.722656 -14.609375 51.679688 -16.148438 54.546875 -19.234375 C 57.421875 -22.328125 58.859375 -26.75 58.859375 -32.5 L 58.859375 -72.296875 Z M 77.25 -72.296875 "/></g></g></g><g fill="#ffffff" fill-opacity="1"><g transform="translate(665.522531, 519.831618)"><g><path d="M 18.265625 -80.90625 C 15.046875 -80.90625 12.367188 -81.925781 10.234375 -83.96875 C 8.109375 -86.019531 7.046875 -88.566406 7.046875 -91.609375 C 7.046875 -94.648438 8.109375 -97.191406 10.234375 -99.234375 C 12.367188 -101.285156 15.046875 -102.3125 18.265625 -102.3125 C 21.484375 -102.3125 24.160156 -101.285156 26.296875 -99.234375 C 28.429688 -97.191406 29.5 -94.648438 29.5 -91.609375 C 29.5 -88.566406 28.429688 -86.019531 26.296875 -83.96875 C 24.160156 -81.925781 21.484375 -80.90625 18.265625 -80.90625 Z M 27.28125 -72.296875 L 27.28125 0 L 9 0 L 9 -72.296875 Z M 27.28125 -72.296875 "/></g></g></g><g fill="#ffffff" fill-opacity="1"><g transform="translate(698.016952, 519.831618)"><g><path d="M 36.671875 1.171875 C 30.753906 1.171875 25.445312 0.109375 20.75 -2.015625 C 16.050781 -4.148438 12.332031 -7.046875 9.59375 -10.703125 C 6.851562 -14.359375 5.351562 -18.40625 5.09375 -22.84375 L 23.484375 -22.84375 C 23.835938 -20.050781 25.207031 -17.742188 27.59375 -15.921875 C 29.988281 -14.097656 32.972656 -13.1875 36.546875 -13.1875 C 40.023438 -13.1875 42.738281 -13.878906 44.6875 -15.265625 C 46.644531 -16.660156 47.625 -18.445312 47.625 -20.625 C 47.625 -22.96875 46.425781 -24.726562 44.03125 -25.90625 C 41.644531 -27.082031 37.84375 -28.363281 32.625 -29.75 C 27.226562 -31.0625 22.8125 -32.410156 19.375 -33.796875 C 15.9375 -35.191406 12.976562 -37.320312 10.5 -40.1875 C 8.019531 -43.0625 6.78125 -46.9375 6.78125 -51.8125 C 6.78125 -55.8125 7.929688 -59.460938 10.234375 -62.765625 C 12.546875 -66.078125 15.851562 -68.6875 20.15625 -70.59375 C 24.46875 -72.507812 29.535156 -73.46875 35.359375 -73.46875 C 43.972656 -73.46875 50.847656 -71.3125 55.984375 -67 C 61.117188 -62.695312 63.945312 -56.894531 64.46875 -49.59375 L 46.984375 -49.59375 C 46.722656 -52.457031 45.523438 -54.738281 43.390625 -56.4375 C 41.253906 -58.132812 38.40625 -58.984375 34.84375 -58.984375 C 31.539062 -58.984375 28.992188 -58.375 27.203125 -57.15625 C 25.421875 -55.9375 24.53125 -54.238281 24.53125 -52.0625 C 24.53125 -49.632812 25.75 -47.785156 28.1875 -46.515625 C 30.625 -45.253906 34.410156 -43.972656 39.546875 -42.671875 C 44.765625 -41.367188 49.066406 -40.019531 52.453125 -38.625 C 55.847656 -37.238281 58.785156 -35.085938 61.265625 -32.171875 C 63.742188 -29.253906 65.03125 -25.40625 65.125 -20.625 C 65.125 -16.445312 63.96875 -12.703125 61.65625 -9.390625 C 59.351562 -6.085938 56.046875 -3.5 51.734375 -1.625 C 47.429688 0.238281 42.410156 1.171875 36.671875 1.171875 Z M 36.671875 1.171875 "/></g></g></g><g fill="#ffffff" fill-opacity="1"><g transform="translate(765.354877, 519.831618)"><g><path d="M 36.671875 1.171875 C 30.753906 1.171875 25.445312 0.109375 20.75 -2.015625 C 16.050781 -4.148438 12.332031 -7.046875 9.59375 -10.703125 C 6.851562 -14.359375 5.351562 -18.40625 5.09375 -22.84375 L 23.484375 -22.84375 C 23.835938 -20.050781 25.207031 -17.742188 27.59375 -15.921875 C 29.988281 -14.097656 32.972656 -13.1875 36.546875 -13.1875 C 40.023438 -13.1875 42.738281 -13.878906 44.6875 -15.265625 C 46.644531 -16.660156 47.625 -18.445312 47.625 -20.625 C 47.625 -22.96875 46.425781 -24.726562 44.03125 -25.90625 C 41.644531 -27.082031 37.84375 -28.363281 32.625 -29.75 C 27.226562 -31.0625 22.8125 -32.410156 19.375 -33.796875 C 15.9375 -35.191406 12.976562 -37.320312 10.5 -40.1875 C 8.019531 -43.0625 6.78125 -46.9375 6.78125 -51.8125 C 6.78125 -55.8125 7.929688 -59.460938 10.234375 -62.765625 C 12.546875 -66.078125 15.851562 -68.6875 20.15625 -70.59375 C 24.46875 -72.507812 29.535156 -73.46875 35.359375 -73.46875 C 43.972656 -73.46875 50.847656 -71.3125 55.984375 -67 C 61.117188 -62.695312 63.945312 -56.894531 64.46875 -49.59375 L 46.984375 -49.59375 C 46.722656 -52.457031 45.523438 -54.738281 43.390625 -56.4375 C 41.253906 -58.132812 38.40625 -58.984375 34.84375 -58.984375 C 31.539062 -58.984375 28.992188 -58.375 27.203125 -57.15625 C 25.421875 -55.9375 24.53125 -54.238281 24.53125 -52.0625 C 24.53125 -49.632812 25.75 -47.785156 28.1875 -46.515625 C 30.625 -45.253906 34.410156 -43.972656 39.546875 -42.671875 C 44.765625 -41.367188 49.066406 -40.019531 52.453125 -38.625 C 55.847656 -37.238281 58.785156 -35.085938 61.265625 -32.171875 C 63.742188 -29.253906 65.03125 -25.40625 65.125 -20.625 C 65.125 -16.445312 63.96875 -12.703125 61.65625 -9.390625 C 59.351562 -6.085938 56.046875 -3.5 51.734375 -1.625 C 47.429688 0.238281 42.410156 1.171875 36.671875 1.171875 Z M 36.671875 1.171875 "/></g></g></g><g fill="#ffffff" fill-opacity="1"><g transform="translate(832.692802, 519.831618)"><g><path d="M 76.21875 -37.71875 C 76.21875 -35.101562 76.039062 -32.753906 75.6875 -30.671875 L 22.84375 -30.671875 C 23.269531 -25.453125 25.09375 -21.363281 28.3125 -18.40625 C 31.53125 -15.445312 35.488281 -13.96875 40.1875 -13.96875 C 46.976562 -13.96875 51.804688 -16.878906 54.671875 -22.703125 L 74.390625 -22.703125 C 72.296875 -15.742188 68.289062 -10.023438 62.375 -5.546875 C 56.457031 -1.066406 49.191406 1.171875 40.578125 1.171875 C 33.617188 1.171875 27.378906 -0.367188 21.859375 -3.453125 C 16.335938 -6.546875 12.03125 -10.921875 8.9375 -16.578125 C 5.851562 -22.234375 4.3125 -28.757812 4.3125 -36.15625 C 4.3125 -43.632812 5.832031 -50.203125 8.875 -55.859375 C 11.914062 -61.515625 16.175781 -65.863281 21.65625 -68.90625 C 27.144531 -71.945312 33.453125 -73.46875 40.578125 -73.46875 C 47.453125 -73.46875 53.609375 -71.988281 59.046875 -69.03125 C 64.484375 -66.070312 68.703125 -61.875 71.703125 -56.4375 C 74.710938 -51 76.21875 -44.757812 76.21875 -37.71875 Z M 57.296875 -42.9375 C 57.203125 -47.632812 55.5 -51.394531 52.1875 -54.21875 C 48.882812 -57.050781 44.84375 -58.46875 40.0625 -58.46875 C 35.539062 -58.46875 31.734375 -57.097656 28.640625 -54.359375 C 25.554688 -51.617188 23.664062 -47.8125 22.96875 -42.9375 Z M 57.296875 -42.9375 "/></g></g></g></svg>